<svg width="54" height="54" viewBox="0 0 54 54" fill="none" xmlns="http://www.w3.org/2000/svg">
<path d="M20 10C20 21.0457 11.0457 30 0 30C11.0457 30 20 38.9543 20 50C20 38.9543 28.9543 30 40 30C28.9543 30 20 21.0457 20 10Z" fill="#FFD042"/>
<path opacity="0.5" d="M44 0C44 5.52285 39.5228 10 34 10C39.5228 10 44 14.4772 44 20C44 14.4772 48.4772 10 54 10C48.4772 10 44 5.52285 44 0Z" fill="#FFD042"/>
<path opacity="0.75" d="M38 42C38 45.3137 35.3137 48 32 48C35.3137 48 38 50.6863 38 54C38 50.6863 40.6863 48 44 48C40.6863 48 38 45.3137 38 42Z" fill="#FFD042"/>
</svg>
